<?xml version="1.0" standalone="no"?>
<!DOCTYPE svg PUBLIC "-//W3C//DTD SVG 20010904//EN"
 "http://www.w3.org/TR/2001/REC-SVG-20010904/DTD/svg10.dtd">
<svg version="1.0" xmlns="http://www.w3.org/2000/svg"
 width="500.000000pt" height="500.000000pt" viewBox="0 0 500.000000 500.000000"
 preserveAspectRatio="xMidYMid meet">

<g transform="translate(0.000000,500.000000) scale(0.100000,-0.100000)"
fill="#000000" stroke="none">
<path d="M3663 3627 c-23 -7 -46 -16 -51 -22 -5 -5 -15 -84 -22 -174 -18 -225
-28 -271 -63 -291 -55 -29 -59 6 -32 259 l5 54 -50 -5 c-28 -3 -52 -7 -54 -9
-2 -2 -9 -65 -16 -139 -12 -143 -26 -182 -67 -188 -30 -4 -32 20 -18 175 6 76
11 139 10 141 -2 2 -25 0 -53 -4 l-49 -6 -7 -52 c-3 -28 -9 -103 -12 -166 l-7
-115 28 -27 c15 -16 39 -28 52 -28 36 0 80 26 99 59 l18 30 18 -29 c15 -26 24
-30 62 -30 33 0 52 7 75 26 24 20 31 22 31 10 0 -11 9 -16 33 -16 74 0 73 -2
84 145 6 74 17 146 25 162 14 31 55 43 69 21 5 -7 6 -67 2 -134 -6 -115 -5
-122 16 -143 38 -38 128 -21 166 31 14 21 17 21 26 6 14 -24 72 -40 116 -32
51 9 82 26 117 63 17 17 32 31 36 31 3 0 4 -16 2 -37 l-5 -36 49 7 c26 3 51
10 55 14 3 4 12 72 18 152 10 126 15 147 33 163 22 18 48 23 48 8 0 -5 7 -16
15 -25 25 -25 65 -1 65 39 0 17 -5 36 -12 43 -20 20 -65 14 -97 -14 -30 -25
-31 -25 -31 -5 0 23 -20 26 -77 15 l-30 -6 -12 -126 c-12 -138 -21 -158 -81
-199 -36 -25 -92 -30 -108 -10 -5 6 -13 27 -17 44 -6 30 -4 34 22 44 83 31
133 92 133 163 0 48 -28 76 -78 76 -109 0 -192 -123 -192 -286 0 -35 -5 -47
-25 -60 -14 -9 -32 -13 -41 -10 -15 6 -16 20 -10 124 8 128 0 166 -38 178 -37
12 -79 6 -109 -16 l-29 -22 7 96 c4 53 6 96 4 95 -2 -1 -23 -6 -46 -12z m501
-143 c18 -46 -44 -154 -88 -154 -17 0 -17 3 5 90 17 68 67 106 83 64z"/>
<path d="M2136 3438 c-23 -32 -20 -54 11 -77 40 -33 93 -7 93 44 0 51 -75 74
-104 33z"/>
<path d="M3075 3398 c-11 -6 -30 -20 -42 -31 l-23 -20 0 21 c0 19 -6 22 -37
22 -62 0 -65 -6 -77 -145 l-12 -127 -41 -38 c-54 -51 -109 -63 -135 -30 -36
44 -15 223 32 270 27 27 50 15 50 -25 0 -43 14 -51 40 -25 23 23 24 33 9 63
-17 31 -28 37 -74 37 -95 0 -169 -92 -184 -230 -7 -69 -10 -76 -46 -107 -68
-59 -145 -44 -145 28 0 22 6 30 34 39 46 15 113 89 121 133 9 46 -15 93 -53
101 -32 7 -106 -16 -135 -42 -42 -37 -69 -111 -76 -208 -5 -79 -10 -97 -30
-118 -39 -42 -52 -34 -46 27 15 141 25 262 25 284 0 24 -2 25 -47 18 -27 -4
-51 -12 -55 -17 -3 -6 -9 -60 -13 -120 -6 -87 -12 -115 -29 -140 -29 -44 -82
-78 -121 -78 -37 0 -50 12 -59 56 -7 29 -4 33 25 43 78 27 129 92 129 163 -2
131 -196 83 -245 -60 -8 -26 -18 -80 -22 -120 -7 -79 -21 -105 -57 -100 -29 4
-30 33 -8 273 11 110 19 201 18 202 -1 1 -24 -4 -51 -11 -55 -14 -62 -25 -64
-111 -1 -54 -13 -85 -25 -66 -12 19 -81 12 -117 -12 -57 -38 -91 -105 -96
-189 -6 -92 -19 -127 -50 -134 -13 -4 -27 -3 -31 1 -4 4 -7 67 -7 140 0 122
-2 135 -20 149 -32 24 -89 20 -124 -10 -29 -24 -31 -24 -31 -6 0 17 -5 19 -47
14 -27 -2 -50 -7 -53 -9 -5 -4 -41 -385 -37 -389 2 -2 25 0 52 4 l50 7 7 70
c23 212 26 228 47 249 17 16 25 18 39 10 15 -10 17 -26 14 -133 -3 -108 -2
-125 15 -143 43 -48 111 -42 158 14 l25 30 18 -22 c12 -15 33 -24 65 -27 44
-5 49 -3 88 36 l41 41 20 -25 c31 -40 87 -35 140 13 27 24 43 33 46 24 6 -19
57 -42 94 -42 47 1 107 30 152 76 l38 39 -6 -34 c-3 -18 -6 -41 -6 -51 0 -10
-13 -23 -30 -30 -44 -18 -80 -65 -80 -104 0 -63 63 -91 132 -57 53 25 68 48
78 123 8 53 13 63 57 102 26 24 50 40 51 35 6 -16 60 -39 90 -39 63 0 96 14
146 62 30 29 52 44 55 37 11 -34 55 -59 103 -59 63 0 106 18 153 65 l37 38 -4
-42 -4 -42 51 6 c27 4 51 8 53 10 1 1 8 66 14 145 9 112 16 147 31 166 23 29
43 31 57 4 13 -24 43 -26 64 -4 22 21 20 50 -4 74 -23 23 -36 24 -65 8z m-587
-143 c3 -49 -24 -97 -69 -120 l-32 -17 8 48 c11 75 46 137 74 132 11 -2 17
-16 19 -43z m-483 -43 c3 -16 1 -42 -5 -58 -14 -37 -59 -84 -81 -84 -14 0 -15
6 -8 43 9 49 26 96 41 114 19 23 46 15 53 -15z m-390 -42 c10 -16 -15 -224
-31 -247 -9 -15 -24 -23 -44 -23 -36 0 -44 21 -42 107 2 64 20 124 49 155 17
19 58 24 68 8z m465 -364 c-10 -45 -18 -56 -41 -56 -10 0 -19 2 -19 4 0 2 -3
11 -6 20 -7 17 52 80 66 71 4 -3 4 -20 0 -39z"/>
<path d="M838 3311 c-46 -29 -120 -122 -154 -193 -14 -31 -24 -39 -53 -44 -99
-15 -151 -53 -151 -108 0 -33 32 -51 61 -35 15 8 20 18 16 35 -5 27 32 64 63
64 16 0 15 -9 -11 -91 -62 -193 -55 -293 22 -305 l34 -6 0 109 c0 81 6 132 25
207 l24 98 53 -4 c29 -3 55 -7 58 -9 2 -3 -1 -69 -8 -148 l-13 -142 51 6 c27
4 51 8 53 10 3 3 52 521 52 558 0 25 -3 27 -38 27 -25 0 -54 -10 -84 -29z m4
-150 c-5 -51 -12 -94 -14 -96 -2 -3 -24 -1 -49 3 -36 7 -43 11 -41 27 5 30 61
137 85 163 28 31 30 20 19 -97z"/>
<path d="M2616 2683 c-3 -21 -12 -119 -21 -218 -8 -99 -17 -204 -21 -232 -4
-43 -3 -53 10 -53 19 0 21 15 41 250 9 102 18 209 21 238 5 42 4 52 -9 52 -10
0 -17 -13 -21 -37z"/>
<path d="M2836 2563 c-3 -8 -6 -16 -6 -18 0 -2 23 -11 50 -20 28 -9 50 -20 50
-23 0 -4 -23 -22 -50 -40 -31 -20 -50 -39 -50 -51 0 -16 13 -10 80 33 44 28
80 56 80 62 0 5 -33 24 -74 41 -62 26 -76 29 -80 16z"/>
<path d="M2310 2469 c-41 -28 -76 -55 -78 -60 -4 -9 91 -54 136 -66 20 -5 23
-2 20 13 -2 11 -20 25 -45 34 -23 8 -44 18 -47 21 -4 3 19 22 49 43 30 20 55
43 55 51 0 23 -9 19 -90 -36z"/>
</g>
</svg>
